<?xml version="1.0" encoding="UTF-8"?>
<svg id="Layer_2" data-name="Layer 2" xmlns="http://www.w3.org/2000/svg" viewBox="0 0 639.47 822.18">
  <defs>
    <style>
      .cls-1 {
        fill: #fff;
      }
    </style>
  </defs>
  <g id="Brandmark">
    <path class="cls-1" d="M288.91,822.18c-67,0-122-5.14-165-15.42-43.02-10.28-74.43-25.51-94.21-45.68-19.81-20.18-29.7-44.73-29.7-73.65,0-35.02,13.88-63.57,41.68-85.64,27.78-22.07,68.69-34.63,122.76-37.68v-23.98c-41.87,0-74.05-4.18-96.49-12.56-22.46-8.37-33.69-23.98-33.69-46.82,0-21.3,11.03-40.72,33.12-58.24,22.07-17.5,58.61-31.21,109.62-41.11v-23.98c-46.44-3.8-83.36-19.22-110.76-46.25-27.4-27.01-41.11-62.61-41.11-106.77,0-37.29,10.65-71.37,31.97-102.2,21.31-30.83,53.28-55.56,95.93-74.22C195.64,9.33,248.94,0,312.89,0h312.88v138.17l-190.7-25.12v27.41c49.47,6.85,84.87,18.27,106.2,34.26,21.3,15.99,31.97,38.45,31.97,67.37,0,30.46-10.47,57.49-31.4,81.08-20.94,23.6-50.44,42.07-88.5,55.38-38.07,13.33-83.36,19.98-135.89,19.98-9.14,0-19.23-.37-30.26-1.14-11.05-.75-31.4-2.66-61.09-5.71-12.18,10.67-21.7,19.61-28.55,26.83-6.85,7.25-10.28,13.9-10.28,19.98,0,4.57,1.89,8.39,5.71,11.42,3.8,3.05,9.31,5.14,16.56,6.28,7.23,1.14,15.02,1.71,23.41,1.71h183.84c15.22,0,35.21.96,59.95,2.85,24.73,1.91,49.48,7.81,74.22,17.7,24.73,9.9,45.68,25.89,62.81,47.96,17.13,22.09,25.69,53.67,25.69,94.78,0,44.91-12.56,82.4-37.68,112.48-25.12,30.06-63.57,52.33-115.33,66.8-51.78,14.45-117.62,21.7-197.55,21.7ZM312.89,676.01c44.14,0,78.4-2.28,102.77-6.85,24.35-4.57,41.28-11.81,50.82-21.7,9.51-9.9,14.27-22.09,14.27-36.54,0-13.7-2.68-24.55-8-32.55-5.34-7.99-12.19-13.5-20.55-16.56-8.39-3.03-16.95-4.94-25.69-5.71-8.77-.75-16.19-1.14-22.27-1.14h-147.31c-28.17,0-48.92,6.67-62.23,19.98-13.33,13.33-19.98,28.74-19.98,46.25,0,14.45,4.57,25.69,13.7,33.69,9.14,7.99,23.79,13.5,43.97,16.56,20.16,3.03,46.99,4.57,80.5,4.57ZM304.89,307.17c32.72,0,57.27-8.74,73.66-26.26,16.36-17.51,24.55-39.58,24.55-66.23,0-28.92-8.39-52.71-25.12-71.37-16.76-18.65-40.74-27.98-71.94-27.98s-55.58,9.33-73.08,27.98c-17.52,18.66-26.26,42.45-26.26,71.37,0,17.52,3.8,33.31,11.42,47.39,7.59,14.1,18.65,25.12,33.11,33.12,14.45,7.99,32.35,11.99,53.67,11.99Z"/>
  </g>
</svg>